<?xml version="1.0" encoding="UTF-8" standalone="no"?>
<!DOCTYPE svg PUBLIC "-//W3C//DTD SVG 1.0//EN" "http://www.w3.org/TR/2001/REC-SVG-20010904/DTD/svg10.dtd">
<!-- Generated by Microsoft Visio 11.0, SVG Export, v1.0 grid1.svg Page-1 -->
<svg xmlns="http://www.w3.org/2000/svg" xmlns:xlink="http://www.w3.org/1999/xlink" xmlns:ev="http://www.w3.org/2001/xml-events"
		xmlns:v="http://schemas.microsoft.com/visio/2003/SVGExtensions/" width="3.81078in" height="3.81078in"
		viewBox="0 0 274.376 274.376" xml:space="preserve" color-interpolation-filters="sRGB" class="st7">
	<v:documentProperties v:langID="1033" v:viewMarkup="false"/>

	<style type="text/css">
	<![CDATA[
		.st1 {fill:#ffffff;stroke:#000000;stroke-linecap:round;stroke-linejoin:round;stroke-width:0.75}
		.st2 {fill:#000000;font-family:Calibri;font-size:1.5em}
		.st3 {stroke:#000000;stroke-linecap:round;stroke-linejoin:round;stroke-width:1.5}
		.st4 {fill:none;stroke:#000000;stroke-linecap:round;stroke-linejoin:round;stroke-width:1.5}
		.st5 {fill:none;stroke:none;stroke-linecap:round;stroke-linejoin:round;stroke-width:0.75}
		.st6 {fill:#000000;font-family:Calibri;font-size:0.833336em}
		.st7 {fill:none;fill-rule:evenodd;font-size:12px;overflow:visible;stroke-linecap:square;stroke-miterlimit:3}
	]]>
	</style>

	<g v:mID="0" v:index="1" v:groupContext="foregroundPage">
		<title>Page-1</title>
		<v:pageProperties v:drawingScale="0.0393701" v:pageScale="0.0393701" v:drawingUnits="24" v:shadowOffsetX="8.50394"
				v:shadowOffsetY="-8.50394"/>
		<g id="shape1-1" v:mID="1" v:groupContext="shape" transform="translate(17.7579,-228.272)">
			<title>Sheet.1</title>
			<rect x="0" y="246.03" width="28.3465" height="28.3465" class="st1"/>
		</g>
		<g id="shape2-3" v:mID="2" v:groupContext="shape" transform="translate(46.1043,-228.272)">
			<title>Sheet.2</title>
			<desc>7</desc>
			<v:textBlock v:margins="rect(1,1,1,1)" v:tabSpace="42.5197"/>
			<v:textRect cx="14.1732" cy="260.203" width="28.35" height="28.3465"/>
			<rect x="0" y="246.03" width="28.3465" height="28.3465" class="st1"/>
			<text x="9.61" y="265.6" class="st2" v:langID="1033"><v:paragraph v:horizAlign="1"/><v:tabList/>7</text>		</g>
		<g id="shape3-6" v:mID="3" v:groupContext="shape" transform="translate(17.7579,-199.925)">
			<title>Sheet.3</title>
			<rect x="0" y="246.03" width="28.3465" height="28.3465" class="st1"/>
		</g>
		<g id="shape4-8" v:mID="4" v:groupContext="shape" transform="translate(46.1043,-199.925)">
			<title>Sheet.4</title>
			<rect x="0" y="246.03" width="28.3465" height="28.3465" class="st1"/>
		</g>
		<g id="shape5-10" v:mID="5" v:groupContext="shape" transform="translate(17.7579,-171.579)">
			<title>Sheet.5</title>
			<rect x="0" y="246.03" width="28.3465" height="28.3465" class="st1"/>
		</g>
		<g id="shape6-12" v:mID="6" v:groupContext="shape" transform="translate(74.4508,-228.272)">
			<title>Sheet.6</title>
			<desc>3</desc>
			<v:textBlock v:margins="rect(1,1,1,1)" v:tabSpace="42.5197"/>
			<v:textRect cx="14.1732" cy="260.203" width="28.35" height="28.3465"/>
			<rect x="0" y="246.03" width="28.3465" height="28.3465" class="st1"/>
			<text x="9.61" y="265.6" class="st2" v:langID="1033"><v:paragraph v:horizAlign="1"/><v:tabList/>3</text>		</g>
		<g id="shape7-15" v:mID="7" v:groupContext="shape" transform="translate(74.4508,-199.925)">
			<title>Sheet.7</title>
			<desc>4</desc>
			<v:textBlock v:margins="rect(1,1,1,1)" v:tabSpace="42.5197"/>
			<v:textRect cx="14.1732" cy="260.203" width="28.35" height="28.3465"/>
			<rect x="0" y="246.03" width="28.3465" height="28.3465" class="st1"/>
			<text x="9.61" y="265.6" class="st2" v:langID="1033"><v:paragraph v:horizAlign="1"/><v:tabList/>4</text>		</g>
		<g id="shape8-18" v:mID="8" v:groupContext="shape" transform="translate(46.1043,-171.579)">
			<title>Sheet.8</title>
			<desc>8</desc>
			<v:textBlock v:margins="rect(1,1,1,1)" v:tabSpace="42.5197"/>
			<v:textRect cx="14.1732" cy="260.203" width="28.35" height="28.3465"/>
			<rect x="0" y="246.03" width="28.3465" height="28.3465" class="st1"/>
			<text x="9.61" y="265.6" class="st2" v:langID="1033"><v:paragraph v:horizAlign="1"/><v:tabList/>8</text>		</g>
		<g id="shape9-21" v:mID="9" v:groupContext="shape" transform="translate(74.4508,-171.579)">
			<title>Sheet.9</title>
			<desc>5</desc>
			<v:textBlock v:margins="rect(1,1,1,1)" v:tabSpace="42.5197"/>
			<v:textRect cx="14.1732" cy="260.203" width="28.35" height="28.3465"/>
			<rect x="0" y="246.03" width="28.3465" height="28.3465" class="st1"/>
			<text x="9.61" y="265.6" class="st2" v:langID="1033"><v:paragraph v:horizAlign="1"/><v:tabList/>5</text>		</g>
		<g id="shape10-24" v:mID="10" v:groupContext="shape" transform="translate(102.797,-228.272)">
			<title>Sheet.10</title>
			<rect x="0" y="246.03" width="28.3465" height="28.3465" class="st1"/>
		</g>
		<g id="shape11-26" v:mID="11" v:groupContext="shape" transform="translate(131.144,-228.272)">
			<title>Sheet.11</title>
			<rect x="0" y="246.03" width="28.3465" height="28.3465" class="st1"/>
		</g>
		<g id="shape12-28" v:mID="12" v:groupContext="shape" transform="translate(102.797,-199.925)">
			<title>Sheet.12</title>
			<desc>1</desc>
			<v:textBlock v:margins="rect(1,1,1,1)" v:tabSpace="42.5197"/>
			<v:textRect cx="14.1732" cy="260.203" width="28.35" height="28.3465"/>
			<rect x="0" y="246.03" width="28.3465" height="28.3465" class="st1"/>
			<text x="9.61" y="265.6" class="st2" v:langID="1033"><v:paragraph v:horizAlign="1"/><v:tabList/>1</text>		</g>
		<g id="shape13-31" v:mID="13" v:groupContext="shape" transform="translate(131.144,-199.925)">
			<title>Sheet.13</title>
			<desc>3</desc>
			<v:textBlock v:margins="rect(1,1,1,1)" v:tabSpace="42.5197"/>
			<v:textRect cx="14.1732" cy="260.203" width="28.35" height="28.3465"/>
			<rect x="0" y="246.03" width="28.3465" height="28.3465" class="st1"/>
			<text x="9.61" y="265.6" class="st2" v:langID="1033"><v:paragraph v:horizAlign="1"/><v:tabList/>3</text>		</g>
		<g id="shape14-34" v:mID="14" v:groupContext="shape" transform="translate(102.797,-171.579)">
			<title>Sheet.14</title>
			<rect x="0" y="246.03" width="28.3465" height="28.3465" class="st1"/>
		</g>
		<g id="shape15-36" v:mID="15" v:groupContext="shape" transform="translate(159.49,-228.272)">
			<title>Sheet.15</title>
			<rect x="0" y="246.03" width="28.3465" height="28.3465" class="st1"/>
		</g>
		<g id="shape16-38" v:mID="16" v:groupContext="shape" transform="translate(159.49,-199.925)">
			<title>Sheet.16</title>
			<rect x="0" y="246.03" width="28.3465" height="28.3465" class="st1"/>
		</g>
		<g id="shape17-40" v:mID="17" v:groupContext="shape" transform="translate(131.144,-171.579)">
			<title>Sheet.17</title>
			<rect x="0" y="246.03" width="28.3465" height="28.3465" class="st1"/>
		</g>
		<g id="shape18-42" v:mID="18" v:groupContext="shape" transform="translate(159.49,-171.579)">
			<title>Sheet.18</title>
			<desc>6</desc>
			<v:textBlock v:margins="rect(1,1,1,1)" v:tabSpace="42.5197"/>
			<v:textRect cx="14.1732" cy="260.203" width="28.35" height="28.3465"/>
			<rect x="0" y="246.03" width="28.3465" height="28.3465" class="st1"/>
			<text x="9.61" y="265.6" class="st2" v:langID="1033"><v:paragraph v:horizAlign="1"/><v:tabList/>6</text>		</g>
		<g id="shape19-45" v:mID="19" v:groupContext="shape" transform="translate(187.837,-228.272)">
			<title>Sheet.19</title>
			<desc>8</desc>
			<v:textBlock v:margins="rect(1,1,1,1)" v:tabSpace="42.5197"/>
			<v:textRect cx="14.1732" cy="260.203" width="28.35" height="28.3465"/>
			<rect x="0" y="246.03" width="28.3465" height="28.3465" class="st1"/>
			<text x="9.61" y="265.6" class="st2" v:langID="1033"><v:paragraph v:horizAlign="1"/><v:tabList/>8</text>		</g>
		<g id="shape20-48" v:mID="20" v:groupContext="shape" transform="translate(216.183,-228.272)">
			<title>Sheet.20</title>
			<rect x="0" y="246.03" width="28.3465" height="28.3465" class="st1"/>
		</g>
		<g id="shape21-50" v:mID="21" v:groupContext="shape" transform="translate(187.837,-199.925)">
			<title>Sheet.21</title>
			<rect x="0" y="246.03" width="28.3465" height="28.3465" class="st1"/>
		</g>
		<g id="shape22-52" v:mID="22" v:groupContext="shape" transform="translate(216.183,-199.925)">
			<title>Sheet.22</title>
			<desc>5</desc>
			<v:textBlock v:margins="rect(1,1,1,1)" v:tabSpace="42.5197"/>
			<v:textRect cx="14.1732" cy="260.203" width="28.35" height="28.3465"/>
			<rect x="0" y="246.03" width="28.3465" height="28.3465" class="st1"/>
			<text x="9.61" y="265.6" class="st2" v:langID="1033"><v:paragraph v:horizAlign="1"/><v:tabList/>5</text>		</g>
		<g id="shape23-55" v:mID="23" v:groupContext="shape" transform="translate(187.837,-171.579)">
			<title>Sheet.23</title>
			<desc>3</desc>
			<v:textBlock v:margins="rect(1,1,1,1)" v:tabSpace="42.5197"/>
			<v:textRect cx="14.1732" cy="260.203" width="28.35" height="28.3465"/>
			<rect x="0" y="246.03" width="28.3465" height="28.3465" class="st1"/>
			<text x="9.61" y="265.6" class="st2" v:langID="1033"><v:paragraph v:horizAlign="1"/><v:tabList/>3</text>		</g>
		<g id="shape24-58" v:mID="24" v:groupContext="shape" transform="translate(244.53,-228.272)">
			<title>Sheet.24</title>
			<rect x="0" y="246.03" width="28.3465" height="28.3465" class="st1"/>
		</g>
		<g id="shape25-60" v:mID="25" v:groupContext="shape" transform="translate(244.53,-199.925)">
			<title>Sheet.25</title>
			<rect x="0" y="246.03" width="28.3465" height="28.3465" class="st1"/>
		</g>
		<g id="shape26-62" v:mID="26" v:groupContext="shape" transform="translate(216.183,-171.579)">
			<title>Sheet.26</title>
			<desc>1</desc>
			<v:textBlock v:margins="rect(1,1,1,1)" v:tabSpace="42.5197"/>
			<v:textRect cx="14.1732" cy="260.203" width="28.35" height="28.3465"/>
			<rect x="0" y="246.03" width="28.3465" height="28.3465" class="st1"/>
			<text x="9.61" y="265.6" class="st2" v:langID="1033"><v:paragraph v:horizAlign="1"/><v:tabList/>1</text>		</g>
		<g id="shape27-65" v:mID="27" v:groupContext="shape" transform="translate(244.53,-171.579)">
			<title>Sheet.27</title>
			<rect x="0" y="246.03" width="28.3465" height="28.3465" class="st1"/>
		</g>
		<g id="shape28-67" v:mID="28" v:groupContext="shape" transform="translate(17.7579,-143.232)">
			<title>Sheet.28</title>
			<desc>5</desc>
			<v:textBlock v:margins="rect(1,1,1,1)" v:tabSpace="42.5197"/>
			<v:textRect cx="14.1732" cy="260.203" width="28.35" height="28.3465"/>
			<rect x="0" y="246.03" width="28.3465" height="28.3465" class="st1"/>
			<text x="9.61" y="265.6" class="st2" v:langID="1033"><v:paragraph v:horizAlign="1"/><v:tabList/>5</text>		</g>
		<g id="shape29-70" v:mID="29" v:groupContext="shape" transform="translate(46.1043,-143.232)">
			<title>Sheet.29</title>
			<rect x="0" y="246.03" width="28.3465" height="28.3465" class="st1"/>
		</g>
		<g id="shape30-72" v:mID="30" v:groupContext="shape" transform="translate(17.7579,-114.886)">
			<title>Sheet.30</title>
			<rect x="0" y="246.03" width="28.3465" height="28.3465" class="st1"/>
		</g>
		<g id="shape31-74" v:mID="31" v:groupContext="shape" transform="translate(46.1043,-114.886)">
			<title>Sheet.31</title>
			<rect x="0" y="246.03" width="28.3465" height="28.3465" class="st1"/>
		</g>
		<g id="shape32-76" v:mID="32" v:groupContext="shape" transform="translate(17.7579,-86.5394)">
			<title>Sheet.32</title>
			<rect x="0" y="246.03" width="28.3465" height="28.3465" class="st1"/>
		</g>
		<g id="shape33-78" v:mID="33" v:groupContext="shape" transform="translate(74.4508,-143.232)">
			<title>Sheet.33</title>
			<rect x="0" y="246.03" width="28.3465" height="28.3465" class="st1"/>
		</g>
		<g id="shape34-80" v:mID="34" v:groupContext="shape" transform="translate(74.4508,-114.886)">
			<title>Sheet.34</title>
			<desc>8</desc>
			<v:textBlock v:margins="rect(1,1,1,1)" v:tabSpace="42.5197"/>
			<v:textRect cx="14.1732" cy="260.203" width="28.35" height="28.3465"/>
			<rect x="0" y="246.03" width="28.3465" height="28.3465" class="st1"/>
			<text x="9.61" y="265.6" class="st2" v:langID="1033"><v:paragraph v:horizAlign="1"/><v:tabList/>8</text>		</g>
		<g id="shape35-83" v:mID="35" v:groupContext="shape" transform="translate(46.1043,-86.5394)">
			<title>Sheet.35</title>
			<desc>1</desc>
			<v:textBlock v:margins="rect(1,1,1,1)" v:tabSpace="42.5197"/>
			<v:textRect cx="14.1732" cy="260.203" width="28.35" height="28.3465"/>
			<rect x="0" y="246.03" width="28.3465" height="28.3465" class="st1"/>
			<text x="9.61" y="265.6" class="st2" v:langID="1033"><v:paragraph v:horizAlign="1"/><v:tabList/>1</text>		</g>
		<g id="shape36-86" v:mID="36" v:groupContext="shape" transform="translate(74.4508,-86.5394)">
			<title>Sheet.36</title>
			<rect x="0" y="246.03" width="28.3465" height="28.3465" class="st1"/>
		</g>
		<g id="shape37-88" v:mID="37" v:groupContext="shape" transform="translate(102.797,-143.232)">
			<title>Sheet.37</title>
			<rect x="0" y="246.03" width="28.3465" height="28.3465" class="st1"/>
		</g>
		<g id="shape38-90" v:mID="38" v:groupContext="shape" transform="translate(131.144,-143.232)">
			<title>Sheet.38</title>
			<desc>9</desc>
			<v:textBlock v:margins="rect(1,1,1,1)" v:tabSpace="42.5197"/>
			<v:textRect cx="14.1732" cy="260.203" width="28.35" height="28.3465"/>
			<rect x="0" y="246.03" width="28.3465" height="28.3465" class="st1"/>
			<text x="9.61" y="265.6" class="st2" v:langID="1033"><v:paragraph v:horizAlign="1"/><v:tabList/>9</text>		</g>
		<g id="shape39-93" v:mID="39" v:groupContext="shape" transform="translate(102.797,-114.886)">
			<title>Sheet.39</title>
			<rect x="0" y="246.03" width="28.3465" height="28.3465" class="st1"/>
		</g>
		<g id="shape40-95" v:mID="40" v:groupContext="shape" transform="translate(131.144,-114.886)">
			<title>Sheet.40</title>
			<desc>1</desc>
			<v:textBlock v:margins="rect(1,1,1,1)" v:tabSpace="42.5197"/>
			<v:textRect cx="14.1732" cy="260.203" width="28.35" height="28.3465"/>
			<rect x="0" y="246.03" width="28.3465" height="28.3465" class="st1"/>
			<text x="9.61" y="265.6" class="st2" v:langID="1033"><v:paragraph v:horizAlign="1"/><v:tabList/>1</text>		</g>
		<g id="shape41-98" v:mID="41" v:groupContext="shape" transform="translate(102.797,-86.5394)">
			<title>Sheet.41</title>
			<rect x="0" y="246.03" width="28.3465" height="28.3465" class="st1"/>
		</g>
		<g id="shape42-100" v:mID="42" v:groupContext="shape" transform="translate(159.49,-143.232)">
			<title>Sheet.42</title>
			<rect x="0" y="246.03" width="28.3465" height="28.3465" class="st1"/>
		</g>
		<g id="shape43-102" v:mID="43" v:groupContext="shape" transform="translate(159.49,-114.886)">
			<title>Sheet.43</title>
			<rect x="0" y="246.03" width="28.3465" height="28.3465" class="st1"/>
		</g>
		<g id="shape44-104" v:mID="44" v:groupContext="shape" transform="translate(131.144,-86.5394)">
			<title>Sheet.44</title>
			<desc>6</desc>
			<v:textBlock v:margins="rect(1,1,1,1)" v:tabSpace="42.5197"/>
			<v:textRect cx="14.1732" cy="260.203" width="28.35" height="28.3465"/>
			<rect x="0" y="246.03" width="28.3465" height="28.3465" class="st1"/>
			<text x="9.61" y="265.6" class="st2" v:langID="1033"><v:paragraph v:horizAlign="1"/><v:tabList/>6</text>		</g>
		<g id="shape45-107" v:mID="45" v:groupContext="shape" transform="translate(159.49,-86.5394)">
			<title>Sheet.45</title>
			<rect x="0" y="246.03" width="28.3465" height="28.3465" class="st1"/>
		</g>
		<g id="shape46-109" v:mID="46" v:groupContext="shape" transform="translate(187.837,-143.232)">
			<title>Sheet.46</title>
			<rect x="0" y="246.03" width="28.3465" height="28.3465" class="st1"/>
		</g>
		<g id="shape47-111" v:mID="47" v:groupContext="shape" transform="translate(216.183,-143.232)">
			<title>Sheet.47</title>
			<desc>3</desc>
			<v:textBlock v:margins="rect(1,1,1,1)" v:tabSpace="42.5197"/>
			<v:textRect cx="14.1732" cy="260.203" width="28.35" height="28.3465"/>
			<rect x="0" y="246.03" width="28.3465" height="28.3465" class="st1"/>
			<text x="9.61" y="265.6" class="st2" v:langID="1033"><v:paragraph v:horizAlign="1"/><v:tabList/>3</text>		</g>
		<g id="shape48-114" v:mID="48" v:groupContext="shape" transform="translate(187.837,-114.886)">
			<title>Sheet.48</title>
			<desc>5</desc>
			<v:textBlock v:margins="rect(1,1,1,1)" v:tabSpace="42.5197"/>
			<v:textRect cx="14.1732" cy="260.203" width="28.35" height="28.3465"/>
			<rect x="0" y="246.03" width="28.3465" height="28.3465" class="st1"/>
			<text x="9.61" y="265.6" class="st2" v:langID="1033"><v:paragraph v:horizAlign="1"/><v:tabList/>5</text>		</g>
		<g id="shape49-117" v:mID="49" v:groupContext="shape" transform="translate(216.183,-114.886)">
			<title>Sheet.49</title>
			<rect x="0" y="246.03" width="28.3465" height="28.3465" class="st1"/>
		</g>
		<g id="shape50-119" v:mID="50" v:groupContext="shape" transform="translate(187.837,-86.5394)">
			<title>Sheet.50</title>
			<rect x="0" y="246.03" width="28.3465" height="28.3465" class="st1"/>
		</g>
		<g id="shape51-121" v:mID="51" v:groupContext="shape" transform="translate(244.53,-143.232)">
			<title>Sheet.51</title>
			<rect x="0" y="246.03" width="28.3465" height="28.3465" class="st1"/>
		</g>
		<g id="shape52-123" v:mID="52" v:groupContext="shape" transform="translate(244.53,-114.886)">
			<title>Sheet.52</title>
			<rect x="0" y="246.03" width="28.3465" height="28.3465" class="st1"/>
		</g>
		<g id="shape53-125" v:mID="53" v:groupContext="shape" transform="translate(216.183,-86.5394)">
			<title>Sheet.53</title>
			<rect x="0" y="246.03" width="28.3465" height="28.3465" class="st1"/>
		</g>
		<g id="shape54-127" v:mID="54" v:groupContext="shape" transform="translate(244.53,-86.5394)">
			<title>Sheet.54</title>
			<desc>7</desc>
			<v:textBlock v:margins="rect(1,1,1,1)" v:tabSpace="42.5197"/>
			<v:textRect cx="14.1732" cy="260.203" width="28.35" height="28.3465"/>
			<rect x="0" y="246.03" width="28.3465" height="28.3465" class="st1"/>
			<text x="9.61" y="265.6" class="st2" v:langID="1033"><v:paragraph v:horizAlign="1"/><v:tabList/>7</text>		</g>
		<g id="shape55-130" v:mID="55" v:groupContext="shape" transform="translate(17.7579,-58.1929)">
			<title>Sheet.55</title>
			<rect x="0" y="246.03" width="28.3465" height="28.3465" class="st1"/>
		</g>
		<g id="shape56-132" v:mID="56" v:groupContext="shape" transform="translate(46.1043,-58.1929)">
			<title>Sheet.56</title>
			<desc>5</desc>
			<v:textBlock v:margins="rect(1,1,1,1)" v:tabSpace="42.5197"/>
			<v:textRect cx="14.1732" cy="260.203" width="28.35" height="28.3465"/>
			<rect x="0" y="246.03" width="28.3465" height="28.3465" class="st1"/>
			<text x="9.61" y="265.6" class="st2" v:langID="1033"><v:paragraph v:horizAlign="1"/><v:tabList/>5</text>		</g>
		<g id="shape57-135" v:mID="57" v:groupContext="shape" transform="translate(17.7579,-29.8465)">
			<title>Sheet.57</title>
			<rect x="0" y="246.03" width="28.3465" height="28.3465" class="st1"/>
		</g>
		<g id="shape58-137" v:mID="58" v:groupContext="shape" transform="translate(46.1043,-29.8465)">
			<title>Sheet.58</title>
			<desc>4</desc>
			<v:textBlock v:margins="rect(1,1,1,1)" v:tabSpace="42.5197"/>
			<v:textRect cx="14.1732" cy="260.203" width="28.35" height="28.3465"/>
			<rect x="0" y="246.03" width="28.3465" height="28.3465" class="st1"/>
			<text x="9.61" y="265.6" class="st2" v:langID="1033"><v:paragraph v:horizAlign="1"/><v:tabList/>4</text>		</g>
		<g id="shape59-140" v:mID="59" v:groupContext="shape" transform="translate(17.7579,-1.5)">
			<title>Sheet.59</title>
			<rect x="0" y="246.03" width="28.3465" height="28.3465" class="st1"/>
		</g>
		<g id="shape60-142" v:mID="60" v:groupContext="shape" transform="translate(74.4508,-58.1929)">
			<title>Sheet.60</title>
			<desc>1</desc>
			<v:textBlock v:margins="rect(1,1,1,1)" v:tabSpace="42.5197"/>
			<v:textRect cx="14.1732" cy="260.203" width="28.35" height="28.3465"/>
			<rect x="0" y="246.03" width="28.3465" height="28.3465" class="st1"/>
			<text x="9.61" y="265.6" class="st2" v:langID="1033"><v:paragraph v:horizAlign="1"/><v:tabList/>1</text>		</g>
		<g id="shape61-145" v:mID="61" v:groupContext="shape" transform="translate(74.4508,-29.8465)">
			<title>Sheet.61</title>
			<rect x="0" y="246.03" width="28.3465" height="28.3465" class="st1"/>
		</g>
		<g id="shape62-147" v:mID="62" v:groupContext="shape" transform="translate(46.1043,-1.5)">
			<title>Sheet.62</title>
			<rect x="0" y="246.03" width="28.3465" height="28.3465" class="st1"/>
		</g>
		<g id="shape63-149" v:mID="63" v:groupContext="shape" transform="translate(74.4508,-1.5)">
			<title>Sheet.63</title>
			<desc>2</desc>
			<v:textBlock v:margins="rect(1,1,1,1)" v:tabSpace="42.5197"/>
			<v:textRect cx="14.1732" cy="260.203" width="28.35" height="28.3465"/>
			<rect x="0" y="246.03" width="28.3465" height="28.3465" class="st1"/>
			<text x="9.61" y="265.6" class="st2" v:langID="1033"><v:paragraph v:horizAlign="1"/><v:tabList/>2</text>		</g>
		<g id="shape64-152" v:mID="64" v:groupContext="shape" transform="translate(102.797,-58.1929)">
			<title>Sheet.64</title>
			<desc>6</desc>
			<v:textBlock v:margins="rect(1,1,1,1)" v:tabSpace="42.5197"/>
			<v:textRect cx="14.1732" cy="260.203" width="28.35" height="28.3465"/>
			<rect x="0" y="246.03" width="28.3465" height="28.3465" class="st1"/>
			<text x="9.61" y="265.6" class="st2" v:langID="1033"><v:paragraph v:horizAlign="1"/><v:tabList/>6</text>		</g>
		<g id="shape65-155" v:mID="65" v:groupContext="shape" transform="translate(131.144,-58.1929)">
			<title>Sheet.65</title>
			<rect x="0" y="246.03" width="28.3465" height="28.3465" class="st1"/>
		</g>
		<g id="shape66-157" v:mID="66" v:groupContext="shape" transform="translate(102.797,-29.8465)">
			<title>Sheet.66</title>
			<rect x="0" y="246.03" width="28.3465" height="28.3465" class="st1"/>
		</g>
		<g id="shape67-159" v:mID="67" v:groupContext="shape" transform="translate(131.144,-29.8465)">
			<title>Sheet.67</title>
			<desc>5</desc>
			<v:textBlock v:margins="rect(1,1,1,1)" v:tabSpace="42.5197"/>
			<v:textRect cx="14.1732" cy="260.203" width="28.35" height="28.3465"/>
			<rect x="0" y="246.03" width="28.3465" height="28.3465" class="st1"/>
			<text x="9.61" y="265.6" class="st2" v:langID="1033"><v:paragraph v:horizAlign="1"/><v:tabList/>5</text>		</g>
		<g id="shape68-162" v:mID="68" v:groupContext="shape" transform="translate(102.797,-1.5)">
			<title>Sheet.68</title>
			<rect x="0" y="246.03" width="28.3465" height="28.3465" class="st1"/>
		</g>
		<g id="shape69-164" v:mID="69" v:groupContext="shape" transform="translate(159.49,-58.1929)">
			<title>Sheet.69</title>
			<rect x="0" y="246.03" width="28.3465" height="28.3465" class="st1"/>
		</g>
		<g id="shape70-166" v:mID="70" v:groupContext="shape" transform="translate(159.49,-29.8465)">
			<title>Sheet.70</title>
			<desc>2</desc>
			<v:textBlock v:margins="rect(1,1,1,1)" v:tabSpace="42.5197"/>
			<v:textRect cx="14.1732" cy="260.203" width="28.35" height="28.3465"/>
			<rect x="0" y="246.03" width="28.3465" height="28.3465" class="st1"/>
			<text x="9.61" y="265.6" class="st2" v:langID="1033"><v:paragraph v:horizAlign="1"/><v:tabList/>2</text>		</g>
		<g id="shape71-169" v:mID="71" v:groupContext="shape" transform="translate(131.144,-1.5)">
			<title>Sheet.71</title>
			<rect x="0" y="246.03" width="28.3465" height="28.3465" class="st1"/>
		</g>
		<g id="shape72-171" v:mID="72" v:groupContext="shape" transform="translate(159.49,-1.5)">
			<title>Sheet.72</title>
			<rect x="0" y="246.03" width="28.3465" height="28.3465" class="st1"/>
		</g>
		<g id="shape73-173" v:mID="73" v:groupContext="shape" transform="translate(187.837,-58.1929)">
			<title>Sheet.73</title>
			<desc>2</desc>
			<v:textBlock v:margins="rect(1,1,1,1)" v:tabSpace="42.5197"/>
			<v:textRect cx="14.1732" cy="260.203" width="28.35" height="28.3465"/>
			<rect x="0" y="246.03" width="28.3465" height="28.3465" class="st1"/>
			<text x="9.61" y="265.6" class="st2" v:langID="1033"><v:paragraph v:horizAlign="1"/><v:tabList/>2</text>		</g>
		<g id="shape74-176" v:mID="74" v:groupContext="shape" transform="translate(216.183,-58.1929)">
			<title>Sheet.74</title>
			<desc>8</desc>
			<v:textBlock v:margins="rect(1,1,1,1)" v:tabSpace="42.5197"/>
			<v:textRect cx="14.1732" cy="260.203" width="28.35" height="28.3465"/>
			<rect x="0" y="246.03" width="28.3465" height="28.3465" class="st1"/>
			<text x="9.61" y="265.6" class="st2" v:langID="1033"><v:paragraph v:horizAlign="1"/><v:tabList/>8</text>		</g>
		<g id="shape75-179" v:mID="75" v:groupContext="shape" transform="translate(187.837,-29.8465)">
			<title>Sheet.75</title>
			<desc>9</desc>
			<v:textBlock v:margins="rect(1,1,1,1)" v:tabSpace="42.5197"/>
			<v:textRect cx="14.1732" cy="260.203" width="28.35" height="28.3465"/>
			<rect x="0" y="246.03" width="28.3465" height="28.3465" class="st1"/>
			<text x="9.61" y="265.6" class="st2" v:langID="1033"><v:paragraph v:horizAlign="1"/><v:tabList/>9</text>		</g>
		<g id="shape76-182" v:mID="76" v:groupContext="shape" transform="translate(216.183,-29.8465)">
			<title>Sheet.76</title>
			<rect x="0" y="246.03" width="28.3465" height="28.3465" class="st1"/>
		</g>
		<g id="shape77-184" v:mID="77" v:groupContext="shape" transform="translate(187.837,-1.5)">
			<title>Sheet.77</title>
			<desc>6</desc>
			<v:textBlock v:margins="rect(1,1,1,1)" v:tabSpace="42.5197"/>
			<v:textRect cx="14.1732" cy="260.203" width="28.35" height="28.3465"/>
			<rect x="0" y="246.03" width="28.3465" height="28.3465" class="st1"/>
			<text x="9.61" y="265.6" class="st2" v:langID="1033"><v:paragraph v:horizAlign="1"/><v:tabList/>6</text>		</g>
		<g id="shape78-187" v:mID="78" v:groupContext="shape" transform="translate(244.53,-58.1929)">
			<title>Sheet.78</title>
			<rect x="0" y="246.03" width="28.3465" height="28.3465" class="st1"/>
		</g>
		<g id="shape79-189" v:mID="79" v:groupContext="shape" transform="translate(244.53,-29.8465)">
			<title>Sheet.79</title>
			<rect x="0" y="246.03" width="28.3465" height="28.3465" class="st1"/>
		</g>
		<g id="shape80-191" v:mID="80" v:groupContext="shape" transform="translate(216.183,-1.5)">
			<title>Sheet.80</title>
			<desc>4</desc>
			<v:textBlock v:margins="rect(1,1,1,1)" v:tabSpace="42.5197"/>
			<v:textRect cx="14.1732" cy="260.203" width="28.35" height="28.3465"/>
			<rect x="0" y="246.03" width="28.3465" height="28.3465" class="st1"/>
			<text x="9.61" y="265.6" class="st2" v:langID="1033"><v:paragraph v:horizAlign="1"/><v:tabList/>4</text>		</g>
		<g id="shape81-194" v:mID="81" v:groupContext="shape" transform="translate(244.53,-1.5)">
			<title>Sheet.81</title>
			<rect x="0" y="246.03" width="28.3465" height="28.3465" class="st1"/>
		</g>
		<g id="shape82-196" v:mID="82" v:groupContext="shape" transform="translate(462.213,17.7579) rotate(90)">
			<title>Sheet.82</title>
			<path d="M0 274.38 L255.12 274.38" class="st3"/>
		</g>
		<g id="shape83-199" v:mID="83" v:groupContext="shape" transform="translate(377.173,17.7579) rotate(90)">
			<title>Sheet.83</title>
			<path d="M0 274.38 L255.12 274.38" class="st3"/>
		</g>
		<g id="shape84-202" v:mID="84" v:groupContext="shape" transform="translate(17.7579,-86.5394)">
			<title>Sheet.84</title>
			<path d="M0 274.38 L255.12 274.38" class="st3"/>
		</g>
		<g id="shape85-205" v:mID="85" v:groupContext="shape" transform="translate(17.7579,-171.579)">
			<title>Sheet.85</title>
			<path d="M0 274.38 L255.12 274.38" class="st3"/>
		</g>
		<g id="shape86-208" v:mID="86" v:groupContext="shape" transform="translate(17.7579,-1.5)">
			<title>Sheet.86</title>
			<rect x="0" y="19.2579" width="255.118" height="255.118" class="st4"/>
		</g>
		<g id="shape87-210" v:mID="87" v:groupContext="shape" transform="translate(17.7579,-256.618)">
			<title>Sheet.87</title>
			<desc>1</desc>
			<v:textBlock v:margins="rect(1,1,1,1)" v:tabSpace="42.5197"/>
			<v:textRect cx="14.1732" cy="265.872" width="28.35" height="17.0079"/>
			<rect x="0" y="257.368" width="28.3465" height="17.0079" class="st5"/>
			<text x="11.64" y="268.87" class="st6" v:langID="1033"><v:paragraph v:horizAlign="1"/><v:tabList/>1</text>		</g>
		<g id="shape88-213" v:mID="88" v:groupContext="shape" transform="translate(46.1043,-256.618)">
			<title>Sheet.88</title>
			<desc>2</desc>
			<v:textBlock v:margins="rect(1,1,1,1)" v:tabSpace="42.5197"/>
			<v:textRect cx="14.1732" cy="265.872" width="28.35" height="17.0079"/>
			<rect x="0" y="257.368" width="28.3465" height="17.0079" class="st5"/>
			<text x="11.64" y="268.87" class="st6" v:langID="1033"><v:paragraph v:horizAlign="1"/><v:tabList/>2</text>		</g>
		<g id="shape89-216" v:mID="89" v:groupContext="shape" transform="translate(74.4508,-256.618)">
			<title>Sheet.89</title>
			<desc>3</desc>
			<v:textBlock v:margins="rect(1,1,1,1)" v:tabSpace="42.5197"/>
			<v:textRect cx="14.1732" cy="265.872" width="28.35" height="17.0079"/>
			<rect x="0" y="257.368" width="28.3465" height="17.0079" class="st5"/>
			<text x="11.64" y="268.87" class="st6" v:langID="1033"><v:paragraph v:horizAlign="1"/><v:tabList/>3</text>		</g>
		<g id="shape90-219" v:mID="90" v:groupContext="shape" transform="translate(102.797,-256.618)">
			<title>Sheet.90</title>
			<desc>4</desc>
			<v:textBlock v:margins="rect(1,1,1,1)" v:tabSpace="42.5197"/>
			<v:textRect cx="14.1732" cy="265.872" width="28.35" height="17.0079"/>
			<rect x="0" y="257.368" width="28.3465" height="17.0079" class="st5"/>
			<text x="11.64" y="268.87" class="st6" v:langID="1033"><v:paragraph v:horizAlign="1"/><v:tabList/>4</text>		</g>
		<g id="shape91-222" v:mID="91" v:groupContext="shape" transform="translate(131.144,-256.618)">
			<title>Sheet.91</title>
			<desc>5</desc>
			<v:textBlock v:margins="rect(1,1,1,1)" v:tabSpace="42.5197"/>
			<v:textRect cx="14.1732" cy="265.872" width="28.35" height="17.0079"/>
			<rect x="0" y="257.368" width="28.3465" height="17.0079" class="st5"/>
			<text x="11.64" y="268.87" class="st6" v:langID="1033"><v:paragraph v:horizAlign="1"/><v:tabList/>5</text>		</g>
		<g id="shape92-225" v:mID="92" v:groupContext="shape" transform="translate(159.49,-256.618)">
			<title>Sheet.92</title>
			<desc>6</desc>
			<v:textBlock v:margins="rect(1,1,1,1)" v:tabSpace="42.5197"/>
			<v:textRect cx="14.1732" cy="265.872" width="28.35" height="17.0079"/>
			<rect x="0" y="257.368" width="28.3465" height="17.0079" class="st5"/>
			<text x="11.64" y="268.87" class="st6" v:langID="1033"><v:paragraph v:horizAlign="1"/><v:tabList/>6</text>		</g>
		<g id="shape93-228" v:mID="93" v:groupContext="shape" transform="translate(187.837,-256.618)">
			<title>Sheet.93</title>
			<desc>7</desc>
			<v:textBlock v:margins="rect(1,1,1,1)" v:tabSpace="42.5197"/>
			<v:textRect cx="14.1732" cy="265.872" width="28.35" height="17.0079"/>
			<rect x="0" y="257.368" width="28.3465" height="17.0079" class="st5"/>
			<text x="11.64" y="268.87" class="st6" v:langID="1033"><v:paragraph v:horizAlign="1"/><v:tabList/>7</text>		</g>
		<g id="shape94-231" v:mID="94" v:groupContext="shape" transform="translate(216.183,-256.618)">
			<title>Sheet.94</title>
			<desc>8</desc>
			<v:textBlock v:margins="rect(1,1,1,1)" v:tabSpace="42.5197"/>
			<v:textRect cx="14.1732" cy="265.872" width="28.35" height="17.0079"/>
			<rect x="0" y="257.368" width="28.3465" height="17.0079" class="st5"/>
			<text x="11.64" y="268.87" class="st6" v:langID="1033"><v:paragraph v:horizAlign="1"/><v:tabList/>8</text>		</g>
		<g id="shape95-234" v:mID="95" v:groupContext="shape" transform="translate(244.53,-256.618)">
			<title>Sheet.95</title>
			<desc>9</desc>
			<v:textBlock v:margins="rect(1,1,1,1)" v:tabSpace="42.5197"/>
			<v:textRect cx="14.1732" cy="265.872" width="28.35" height="17.0079"/>
			<rect x="0" y="257.368" width="28.3465" height="17.0079" class="st5"/>
			<text x="11.64" y="268.87" class="st6" v:langID="1033"><v:paragraph v:horizAlign="1"/><v:tabList/>9</text>		</g>
		<g id="shape96-237" v:mID="96" v:groupContext="shape" transform="translate(0.75,-228.272)">
			<title>Sheet.96</title>
			<desc>1</desc>
			<v:textBlock v:margins="rect(1,1,1,1)" v:tabSpace="42.5197"/>
			<v:textRect cx="8.50394" cy="260.203" width="17.01" height="28.3465"/>
			<rect x="0" y="246.03" width="17.0079" height="28.3465" class="st5"/>
			<text x="5.97" y="263.2" class="st6" v:langID="1033"><v:paragraph v:horizAlign="1"/><v:tabList/>1</text>		</g>
		<g id="shape97-240" v:mID="97" v:groupContext="shape" transform="translate(0.75,-199.925)">
			<title>Sheet.97</title>
			<desc>2</desc>
			<v:textBlock v:margins="rect(1,1,1,1)" v:tabSpace="42.5197"/>
			<v:textRect cx="8.50394" cy="260.203" width="17.01" height="28.3465"/>
			<rect x="0" y="246.03" width="17.0079" height="28.3465" class="st5"/>
			<text x="5.97" y="263.2" class="st6" v:langID="1033"><v:paragraph v:horizAlign="1"/><v:tabList/>2</text>		</g>
		<g id="shape98-243" v:mID="98" v:groupContext="shape" transform="translate(0.75,-171.579)">
			<title>Sheet.98</title>
			<desc>3</desc>
			<v:textBlock v:margins="rect(1,1,1,1)" v:tabSpace="42.5197"/>
			<v:textRect cx="8.50394" cy="260.203" width="17.01" height="28.3465"/>
			<rect x="0" y="246.03" width="17.0079" height="28.3465" class="st5"/>
			<text x="5.97" y="263.2" class="st6" v:langID="1033"><v:paragraph v:horizAlign="1"/><v:tabList/>3</text>		</g>
		<g id="shape99-246" v:mID="99" v:groupContext="shape" transform="translate(0.75,-143.232)">
			<title>Sheet.99</title>
			<desc>4</desc>
			<v:textBlock v:margins="rect(1,1,1,1)" v:tabSpace="42.5197"/>
			<v:textRect cx="8.50394" cy="260.203" width="17.01" height="28.3465"/>
			<rect x="0" y="246.03" width="17.0079" height="28.3465" class="st5"/>
			<text x="5.97" y="263.2" class="st6" v:langID="1033"><v:paragraph v:horizAlign="1"/><v:tabList/>4</text>		</g>
		<g id="shape100-249" v:mID="100" v:groupContext="shape" transform="translate(0.75,-114.886)">
			<title>Sheet.100</title>
			<desc>5</desc>
			<v:textBlock v:margins="rect(1,1,1,1)" v:tabSpace="42.5197"/>
			<v:textRect cx="8.50394" cy="260.203" width="17.01" height="28.3465"/>
			<rect x="0" y="246.03" width="17.0079" height="28.3465" class="st5"/>
			<text x="5.97" y="263.2" class="st6" v:langID="1033"><v:paragraph v:horizAlign="1"/><v:tabList/>5</text>		</g>
		<g id="shape101-252" v:mID="101" v:groupContext="shape" transform="translate(0.75,-86.5394)">
			<title>Sheet.101</title>
			<desc>6</desc>
			<v:textBlock v:margins="rect(1,1,1,1)" v:tabSpace="42.5197"/>
			<v:textRect cx="8.50394" cy="260.203" width="17.01" height="28.3465"/>
			<rect x="0" y="246.03" width="17.0079" height="28.3465" class="st5"/>
			<text x="5.97" y="263.2" class="st6" v:langID="1033"><v:paragraph v:horizAlign="1"/><v:tabList/>6</text>		</g>
		<g id="shape102-255" v:mID="102" v:groupContext="shape" transform="translate(0.75,-58.1929)">
			<title>Sheet.102</title>
			<desc>7</desc>
			<v:textBlock v:margins="rect(1,1,1,1)" v:tabSpace="42.5197"/>
			<v:textRect cx="8.50394" cy="260.203" width="17.01" height="28.3465"/>
			<rect x="0" y="246.03" width="17.0079" height="28.3465" class="st5"/>
			<text x="5.97" y="263.2" class="st6" v:langID="1033"><v:paragraph v:horizAlign="1"/><v:tabList/>7</text>		</g>
		<g id="shape103-258" v:mID="103" v:groupContext="shape" transform="translate(0.75,-29.8465)">
			<title>Sheet.103</title>
			<desc>8</desc>
			<v:textBlock v:margins="rect(1,1,1,1)" v:tabSpace="42.5197"/>
			<v:textRect cx="8.50394" cy="260.203" width="17.01" height="28.3465"/>
			<rect x="0" y="246.03" width="17.0079" height="28.3465" class="st5"/>
			<text x="5.97" y="263.2" class="st6" v:langID="1033"><v:paragraph v:horizAlign="1"/><v:tabList/>8</text>		</g>
		<g id="shape104-261" v:mID="104" v:groupContext="shape" transform="translate(0.75,-1.5)">
			<title>Sheet.104</title>
			<desc>9</desc>
			<v:textBlock v:margins="rect(1,1,1,1)" v:tabSpace="42.5197"/>
			<v:textRect cx="8.50394" cy="260.203" width="17.01" height="28.3465"/>
			<rect x="0" y="246.03" width="17.0079" height="28.3465" class="st5"/>
			<text x="5.97" y="263.2" class="st6" v:langID="1033"><v:paragraph v:horizAlign="1"/><v:tabList/>9</text>		</g>
	</g>
</svg>
